<svg data-v-0dd9719b="" version="1.0" xmlns="http://www.w3.org/2000/svg" xmlns:xlink="http://www.w3.org/1999/xlink" width="100%" height="100%" viewBox="0 0 340.000000 250.000000" preserveAspectRatio="xMidYMid meet" color-interpolation-filters="sRGB" style="margin: auto;"> <rect data-v-0dd9719b="" x="0" y="0" width="100%" height="100%" fill="#fff" fill-opacity="1" class="background"></rect> <rect data-v-0dd9719b="" x="0" y="0" width="100%" height="100%" fill="url(#watermark)" fill-opacity="1" class="watermarklayer"></rect> <g data-v-0dd9719b="" fill="#333" class="icon-text-wrapper icon-svg-group iconsvg" transform="translate(48.410003662109375,95.00180053710938)"><g class="iconsvg-imagesvg" transform="translate(0,0)"><g><rect fill="#333" fill-opacity="0" stroke-width="2" x="0" y="0" width="60" height="59.996400215987045" class="image-rect"></rect> <svg x="0" y="0" width="60" height="59.996400215987045" filtersec="colorsb9389621885" class="image-svg-svg primary" style="overflow: visible;"><svg xmlns="http://www.w3.org/2000/svg" viewBox="-0.005915164947509766 -0.0032501220703125 100.00916290283203 100.00305938720703"><path d="M97.79 58.53L87.06 44.81a58.94 58.94 0 0 1-5-7.79L72.32 42l-9.14 27.73 4.92 9.75a60.75 60.75 0 0 1 8.64-3.3l16.78-4.67c6.48-1.81 8.48-7.65 4.27-12.98z" fill="#00d495"></path><path d="M30.27 63.18l-9.76 4.92a58.55 58.55 0 0 1 3.31 8.64l4.67 16.78c1.81 6.52 7.65 8.45 13 4.27l13.7-10.73a58.94 58.94 0 0 1 7.79-5l-4.93-9.75z" fill="#7fe000"></path><path d="M36.82 30.27l-4.93-9.76a57.37 57.37 0 0 1-8.63 3.31L6.48 28.49C0 30.3-2 36.14 2.2 41.47l10.74 13.72a58.94 58.94 0 0 1 5 7.79l9.75-4.93z" fill="#00a2ff"></path><path d="M69.73 36.82l9.75-4.92a60 60 0 0 1-3.3-8.64L71.51 6.48C69.7 0 63.85-2 58.53 2.21L44.81 12.94a58.94 58.94 0 0 1-7.79 5L42 27.68z" fill="#00c0d9"></path></svg></svg> <!----></g></g> <g transform="translate(67,8.321949005126953)"><g data-gra="path-name" fill-rule="" class="tp-name iconsvg-namesvg" transform="translate(0,0)"><g transform="scale(1)"><g><path d="M30.42 1.69L31.97-0.76 34.38 0.76 31.43 5.33 30.31 4.86Q30.28 4.86 29.88 4.66 29.48 4.46 28.87 4.05 28.26 3.64 27.47 3.01 26.68 2.38 25.88 1.51L25.88 1.51Q25.24 0.86 24.48-0.18L24.48-0.18Q23.4 1.08 22.18 2.36 20.95 3.64 19.58 4.86L19.58 4.86 17.71 2.77Q19.19 1.44 20.52 0.02 21.85-1.4 23-2.81L23-2.81Q22.36-4.28 21.94-6.07 21.53-7.85 21.53-10.04L21.53-10.04 21.53-15.91 6.84-15.91 6.84-11.23 14.29-11.23 14.29-11.92 17.14-11.92 17.14-0.36Q17.14 0.97 16.18 1.93 15.23 2.88 13.9 2.88L13.9 2.88 9.18 2.88 9.18 0.04 13.9 0.04Q14.29 0.04 14.29-0.36L14.29-0.36 14.29-8.42 6.84-8.42Q6.77-5.33 6.35-2.81 5.94-0.29 5.45 1.53 4.97 3.35 4.55 4.36 4.14 5.36 4.1 5.47L4.1 5.47 2.84 4.86 1.55 4.28Q1.55 4.28 1.94 3.29 2.34 2.3 2.81 0.5 3.28-1.3 3.65-3.82 4.03-6.34 4.03-9.43L4.03-9.43 4.03-18.76 21.53-18.76 21.53-22.54 24.34-22.54 24.34-18.76 27.65-18.76 26.39-21.2 28.91-22.5 30.85-18.76 33.3-18.76 33.3-15.91 24.34-15.91 24.34-10.04Q24.34-8.71 24.53-7.56 24.73-6.41 25.02-5.4L25.02-5.4Q26.03-6.73 26.82-7.88 27.61-9.04 28.17-9.88 28.73-10.73 29.02-11.23 29.3-11.74 29.3-11.77L29.3-11.77 31.79-10.37Q31.72-10.3 31.34-9.63 30.96-8.96 30.26-7.9 29.56-6.84 28.57-5.44 27.58-4.03 26.35-2.48L26.35-2.48Q27.36-0.86 28.48 0.14 29.59 1.15 30.42 1.69L30.42 1.69ZM61.67-19.22L61.67 5.15 58.82 5.15 58.82-22.07 69.16-22.07 69.16-16.63 65.77-10.55Q66.2-9.9 66.83-8.77 67.46-7.63 68.04-6.07 68.62-4.5 69.01-2.48 69.41-0.47 69.41 1.91L69.41 1.91 69.41 3.35 62.5 3.35 62.5 0.5 66.53 0.5Q66.35-1.87 65.79-3.73 65.23-5.58 64.62-6.88 64.01-8.17 63.52-8.86 63.04-9.54 63.04-9.54L63.04-9.54 62.39-10.26 66.31-17.35 66.31-19.22 61.67-19.22ZM38.2-4.68L36.97-7.24Q38.84-8.14 40.54-9.07 42.23-10.01 43.74-10.94L43.74-10.94 38.3-10.94 38.3-13.75 46.19-13.75 46.19-17.32 40.36-17.32 40.36-20.16 46.19-20.16 46.19-22.25 49-22.25 49-20.16 54.25-20.16 54.25-19.15Q54.54-19.44 54.76-19.67 54.97-19.91 55.15-20.09L55.15-20.09Q55.3-20.27 55.44-20.41L55.44-20.41 57.6-18.58Q57.49-18.47 56.23-17.14 54.97-15.8 52.52-13.75L52.52-13.75 58.03-13.75 58.03-10.94 48.82-10.94Q47.95-10.33 47.02-9.68 46.08-9.04 45.04-8.39L45.04-8.39 53.57-8.39 53.57-9.18 56.38-9.18 56.38 1.76Q56.38 3.13 55.44 4.07 54.5 5 53.14 5L53.14 5 40.61 5 40.61-5.87Q40-5.58 39.4-5.27 38.81-4.97 38.2-4.68L38.2-4.68ZM49-17.32L49-14.62Q49.97-15.34 50.8-16.02 51.62-16.7 52.31-17.32L52.31-17.32 49-17.32ZM43.45-5.58L43.45-3.28 53.57-3.28 53.57-5.58 43.45-5.58ZM43.45-0.47L43.45 2.16 53.14 2.16Q53.57 2.16 53.57 1.76L53.57 1.76 53.57-0.47 43.45-0.47ZM76.32-16.92L76.32-19.76 88.81-19.76 87.84-21.64 90.36-22.93 91.98-19.76 103.93-19.76 103.93-16.92 76.32-16.92ZM74.56 5.11L74.56 2.27 91.55 2.27Q92.52 0.32 93.4-1.66 94.28-3.64 95.08-5.47 95.87-7.31 96.52-8.93 97.16-10.55 97.61-11.75 98.06-12.96 98.33-13.64 98.6-14.33 98.6-14.36L98.6-14.36 101.27-13.43Q101.27-13.39 100.75-11.99 100.22-10.58 99.34-8.37 98.46-6.16 97.25-3.37 96.05-0.58 94.68 2.27L94.68 2.27 105.7 2.27 105.7 5.11 74.56 5.11ZM81.65-14.18L86.98-0.14 84.35 0.86 78.98-13.18 81.65-14.18ZM139.07 4.68L135.65-4.72 138.31-5.69 141.73 3.71 139.07 4.68ZM112.79 4.68L110.12 3.71 113.51-5.69 116.17-4.72 112.79 4.68ZM117.94-5.72L120.74-5.72 120.74 2.38 135.97 2.38 135.97 5.22 117.94 5.22 117.94-5.72ZM124.99-6.26L127.55-7.49 131-0.29 128.45 0.94 124.99-6.26ZM127.4-22.46L127.4-19.51 142.06-19.51 142.06-16.7 127.4-16.7 127.4-12.53 139.75-12.53 139.75-9.68 112.25-9.68 112.25-12.53 124.6-12.53 124.6-16.7 109.94-16.7 109.94-19.51 124.6-19.51 124.6-22.46 127.4-22.46ZM154.55-19.73L153.47-17.1 146.48-20.02 147.56-22.64 154.55-19.73ZM146.95 5.47L145.66 2.95Q147.71 1.87 148.88 0.68 150.05-0.5 150.61-1.53 151.16-2.56 151.31-3.26 151.45-3.96 151.45-4.07L151.45-4.07 151.45-12.96 146.27-12.96 146.27-15.8 154.3-15.8 154.3-4Q154.3-3.92 154.24-3.51 154.19-3.1 154.01-2.43 153.83-1.76 153.45-0.9 153.07-0.04 152.39 0.94L152.39 0.94Q152.6 1.15 153 1.4 153.4 1.66 153.95 1.91 154.51 2.16 155.21 2.32 155.92 2.48 156.78 2.48L156.78 2.48 177.73 2.48 177.73 5.33 156.78 5.33Q155.59 5.33 154.6 5.09 153.61 4.86 152.82 4.5 152.03 4.14 151.45 3.74 150.88 3.35 150.52 3.02L150.52 3.02Q149.08 4.36 146.95 5.47L146.95 5.47ZM157.14 1.3L155.45-0.97Q155.45-0.97 156.08-1.48 156.71-1.98 157.64-2.84 158.58-3.71 159.71-4.88 160.85-6.05 161.89-7.4 162.94-8.75 163.76-10.26 164.59-11.77 164.92-13.32L164.92-13.32 164.92-14.51 155.77-14.51 155.77-17.35 164.92-17.35 164.92-22.64 167.76-22.64 167.76-17.35 176.9-17.35 176.9-14.51 167.76-14.51 167.76-13.07 167.72-12.92Q167.36-11.09 166.46-9.34 165.56-7.6 164.43-6.05 163.3-4.5 162.05-3.19 160.81-1.87 159.75-0.9 158.69 0.07 157.97 0.65 157.25 1.22 157.14 1.3L157.14 1.3ZM167.11-8.14L169.24-9.97 177.41-0.43 175.25 1.4 167.11-8.14Z" transform="translate(-1.5499999523162842, 22.93000030517578)"></path></g> <!----> <!----> <!----> <!----> <!----> <!----> <!----></g></g> <g data-gra="path-slogan" fill-rule="" class="tp-slogan iconsvg-slogansvg" fill="#333" transform="translate(33.64499282836914,34.400001525878906)"><!----> <!----> <g transform="scale(1, 1)"><g transform="scale(1)"><path d="M8.06-6.05L8.06-6.05L6.94-6.05Q6.52-7.78 4.55-7.83L4.55-7.83Q1.83-7.69 1.73-4.36L1.73-4.36Q1.73-0.80 4.59-0.80L4.59-0.80Q6.56-0.84 7.03-3.19L7.03-3.19L8.16-3.19Q7.64 0.05 4.36 0.14L4.36 0.14Q0.61 0 0.52-4.31L0.52-4.31Q0.70-8.63 4.55-8.81L4.55-8.81Q7.59-8.72 8.06-6.05ZM10.69-5.06L15.19-5.06L15.19-8.58L16.36-8.58L16.36 0L15.19 0L15.19-3.98L10.69-3.98L10.69 0L9.52 0L9.52-8.58L10.69-8.58L10.69-5.06ZM19.45-1.03L24.61-1.03L24.61 0L18.28 0L18.28-8.58L24.52-8.58L24.52-7.59L19.45-7.59L19.45-4.92L24.14-4.92L24.14-3.89L19.45-3.89L19.45-1.03ZM27.52-8.58L31.83-1.64L31.83-8.58L32.95-8.58L32.95 0L31.64 0L27.28-6.94L27.23-6.94L27.23 0L26.11 0L26.11-8.58L27.52-8.58ZM41.16-3.61L38.53-3.61L38.53-4.59L42.28-4.59L42.28 0L41.53 0L41.25-1.08Q40.27 0.09 38.44 0.14L38.44 0.14Q36.70 0.14 35.77-0.75L35.77-0.75Q34.36-2.06 34.41-4.36L34.41-4.36Q34.73-8.63 38.48-8.81L38.48-8.81Q41.67-8.63 42.14-6L42.14-6L41.02-6Q40.55-7.78 38.44-7.83L38.44-7.83Q35.77-7.64 35.63-4.31L35.63-4.31Q35.63-0.75 38.48-0.75L38.48-0.75Q39.52-0.75 40.27-1.31L40.27-1.31Q41.20-2.06 41.16-3.61L41.16-3.61ZM47.58 0L44.11 0L44.11-8.58L47.63-8.58Q51.09-8.39 51.23-4.41L51.23-4.41Q51.05-0.09 47.58 0L47.58 0ZM47.44-7.64L45.28-7.64L45.28-0.98L47.53-0.98Q49.97-1.13 50.06-4.31L50.06-4.31Q50.02-7.55 47.44-7.64L47.44-7.64ZM58.36-3.19L58.36-8.58L59.53-8.58L59.53-3.05Q59.39 0.05 56.02 0.14L56.02 0.14Q52.88 0.05 52.73-2.86L52.73-2.86L52.73-8.58L53.91-8.58L53.91-3.19Q53.95-0.84 56.06-0.80L56.06-0.80Q58.36-0.84 58.36-3.19L58.36-3.19ZM64.64-8.58L65.81-8.58L65.81-1.03L70.17-1.03L70.17 0L64.64 0L64.64-8.58ZM71.48-8.58L72.66-8.58L72.66 0L71.48 0L71.48-8.58ZM75.47-1.03L80.77-1.03L80.77 0L74.02 0L74.02-0.94L79.27-7.59L74.39-7.59L74.39-8.58L80.77-8.58L80.77-7.59L75.47-1.03ZM83.06-5.06L87.56-5.06L87.56-8.58L88.73-8.58L88.73 0L87.56 0L87.56-3.98L83.06-3.98L83.06 0L81.89 0L81.89-8.58L83.06-8.58L83.06-5.06ZM90.70-8.58L91.88-8.58L91.88 0L90.70 0L90.70-8.58ZM97.36 0L93.89 0L93.89-8.58L97.41-8.58Q100.88-8.39 101.02-4.41L101.02-4.41Q100.83-0.09 97.36 0L97.36 0ZM97.22-7.64L95.06-7.64L95.06-0.98L97.31-0.98Q99.75-1.13 99.84-4.31L99.84-4.31Q99.80-7.55 97.22-7.64L97.22-7.64ZM108.14 0L107.30-2.48L103.83-2.48L102.94 0L101.77 0L105-8.58L106.31-8.58L109.41 0L108.14 0ZM105.56-7.31L104.20-3.52L106.88-3.52L105.61-7.31L105.56-7.31Z" transform="translate(-0.515625, 8.8125)"></path></g></g></g></g></g><defs v-gra="od"></defs></svg>